# xmcd
#
# Track frame offsets: 
#        150
#        11298
#        27695
#        45500
#        67221
#        89066
#        108616
#        123225
#        138258
#        159833
#        171049
#        181195
#        195126
#        207384
#        217562
#
# Disc length: 3233 seconds
#
# Revision: 0
# Processed by: cddbd v1.5.2PL0 Copyright (c) Steve Scherf et al.
# Submitted via: ExactAudioCopy v0.99pb4
#
DISCID=c40c9f0f
DTITLE=Vince Weber - Delta Echo
DYEAR=2009
DGENRE=Boogie
TTITLE0=Movin' Slow
TTITLE1=Shake, Rattle and Roll
TTITLE2=Mother Earth
TTITLE3=I'm Ready
TTITLE4=Blue Light Boogie
TTITLE5=Mojo Working
TTITLE6=Lilian's Blues
TTITLE7=Pinetops Boogie Woogie
TTITLE8=Saturday Night Fish Fry
TTITLE9=Delta Echo
TTITLE10=Corey Harris Boogie
TTITLE11=Going Down
TTITLE12=Ealy In The Morning
TTITLE13=Cross Point Switch
TTITLE14=You've Got To Serve Somebody
EXTD=
EXTT0=
EXTT1=
EXTT2=
EXTT3=
EXTT4=
EXTT5=
EXTT6=
EXTT7=
EXTT8=
EXTT9=
EXTT10=
EXTT11=
EXTT12=
EXTT13=
EXTT14=
PLAYORDER=
